<svg xmlns="http://www.w3.org/2000/svg" viewBox="0 0 239 239"><defs><style>.a{fill:none;stroke:#1d1d1b;stroke-miterlimit:10;stroke-width:12px;}.b{fill:#1d1d1b;}</style></defs><title>logo</title><circle class="a" cx="119.5" cy="119.5" r="113.5"/><rect class="b" x="218" y="113.5" width="15" height="12"/><rect class="b" x="6" y="113.5" width="18" height="12"/><path class="b" d="M65.94,89.5c3.69-26.89,12.64-48,26.41-61.8S120.08,12,120.21,12L119.5,6l-0.68-6c-0.71.08-17.61,2.17-34.27,18.49s-26.88,40.05-30.77,71H65.94Z"/><path class="b" d="M65.73,148.11H53.6c3.76,31.6,14.12,55.88,31,72.37,16.66,16.32,33.56,18.41,34.27,18.49L120.18,227C119.68,227,75.11,221,65.73,148.11Z"/><path class="b" d="M172.56,89.5h12.16c-3.89-30.92-14.19-54.73-30.77-71S120.39,0.12,119.68,0L118.29,12c0.14,0,14.12,1.93,27.87,15.74S168.87,62.61,172.56,89.5Z"/><path class="b" d="M172.75,148.11c-3.57,27.56-12.59,49.12-26.59,63.19C132.41,225.12,118.42,227,118.29,227l0.71,6,0.68,6c0.71-.08,17.61-2.17,34.27-18.49,16.83-16.49,27.2-40.76,31-72.37H172.75Z"/><rect class="b" x="113.5" y="6" width="12" height="83.5"/><rect class="b" x="113.5" y="148.11" width="12" height="84.89"/><path class="b" d="M65.09,117.76L86,137H67.33L55.68,125.46l-5.62,4.63V137H36.54V100.6H50.06v14.25L66.8,100.6H86Z"/><path class="b" d="M142.21,112h-15.6v25H113.08V112H97.48V100.6h44.72V112Z"/><path class="b" d="M209.91,137H196.39V119.69L186.46,137h-8.84l-9.93-17.32V137H154.16V100.6H170.8L182,121.4l11.23-20.8h16.64V137Z"/></svg>